GSerif01-AuthorTextRegular02.ufo
<glyph name="C" format="1">
  <advance width="718"/>
  <unicode hex="0043"/>
  <outline>
    <contour>
      <point x="56" y="355" type="curve" smooth="yes"/>
      <point x="56" y="138"/>
      <point x="200" y="-10"/>
      <point x="395" y="-10" type="curve" smooth="yes"/>
      <point x="546" y="-10"/>
      <point x="649" y="86"/>
      <point x="682" y="223" type="curve"/>
      <point x="628" y="242" type="line"/>
      <point x="599" y="129"/>
      <point x="523" y="42"/>
      <point x="403" y="42" type="curve" smooth="yes"/>
      <point x="262" y="42"/>
      <point x="168" y="166"/>
      <point x="168" y="355" type="curve" smooth="yes"/>
      <point x="168" y="543"/>
      <point x="262" y="667"/>
      <point x="407" y="667" type="curve" smooth="yes"/>
      <point x="498" y="667"/>
      <point x="565" y="617"/>
      <point x="592" y="558" type="curve"/>
      <point x="600" y="596"/>
      <point x="577" y="620"/>
      <point x="550" y="620" type="curve"/>
      <point x="550" y="505" type="line"/>
      <point x="657" y="505" type="line"/>
      <point x="657" y="606" type="line"/>
      <point x="627" y="659"/>
      <point x="535" y="720"/>
      <point x="406" y="720" type="curve" smooth="yes"/>
      <point x="202" y="720"/>
      <point x="56" y="569"/>
    </contour>
  </outline>
</glyph>
<glyph name="E" format="1">
  <advance width="651"/>
  <unicode hex="0045"/>
  <outline>
    <contour>
      <point x="143" y="0" type="line"/>
      <point x="247" y="0" type="line"/>
      <point x="247" y="710" type="line"/>
      <point x="143" y="710" type="line"/>
    </contour>
    <contour>
      <point x="212" y="389" type="line"/>
      <point x="212" y="338" type="line"/>
      <point x="455" y="338" type="line"/>
      <point x="455" y="389" type="line"/>
    </contour>
    <contour>
      <point x="580" y="710" type="line"/>
      <point x="49" y="710" type="line"/>
      <point x="49" y="665" type="line"/>
      <point x="60" y="665" type="line" smooth="yes"/>
      <point x="106" y="665"/>
      <point x="143" y="658"/>
      <point x="143" y="629" type="curve"/>
      <point x="199" y="657" type="line"/>
      <point x="386" y="657" type="line" smooth="yes"/>
      <point x="474" y="657"/>
      <point x="510" y="649"/>
      <point x="515" y="611" type="curve" smooth="yes"/>
      <point x="528" y="518" type="line"/>
      <point x="580" y="518" type="line"/>
    </contour>
    <contour>
      <point x="597" y="217" type="line"/>
      <point x="545" y="217" type="line"/>
      <point x="529" y="103" type="line" smooth="yes"/>
      <point x="523" y="64"/>
      <point x="486" y="53"/>
      <point x="389" y="53" type="curve" smooth="yes"/>
      <point x="199" y="53" type="line"/>
      <point x="143" y="81" type="line"/>
      <point x="143" y="52"/>
      <point x="106" y="45"/>
      <point x="60" y="45" type="curve" smooth="yes"/>
      <point x="49" y="45" type="line"/>
      <point x="49" y="0" type="line"/>
      <point x="597" y="0" type="line"/>
    </contour>
  </outline>
</glyph>
<glyph name="J" format="1">
  <advance width="536"/>
  <unicode hex="004A"/>
  <outline>
    <contour>
      <point x="30" y="6" type="line"/>
      <point x="65" y="-3"/>
      <point x="102" y="-10"/>
      <point x="155" y="-10" type="curve" smooth="yes"/>
      <point x="294" y="-10"/>
      <point x="387" y="55"/>
      <point x="387" y="224" type="curve" smooth="yes"/>
      <point x="387" y="710" type="line"/>
      <point x="282" y="710" type="line"/>
      <point x="282" y="217" type="line" smooth="yes"/>
      <point x="282" y="79"/>
      <point x="235" y="42"/>
      <point x="156" y="42" type="curve" smooth="yes"/>
      <point x="106" y="42"/>
      <point x="67" y="53"/>
      <point x="30" y="64" type="curve"/>
    </contour>
    <contour>
      <point x="387" y="629" type="line"/>
      <point x="387" y="658"/>
      <point x="423" y="665"/>
      <point x="470" y="665" type="curve" smooth="yes"/>
      <point x="503" y="665" type="line"/>
      <point x="503" y="710" type="line"/>
      <point x="146" y="710" type="line"/>
      <point x="146" y="665" type="line"/>
      <point x="198" y="665" type="line" smooth="yes"/>
      <point x="245" y="665"/>
      <point x="282" y="658"/>
      <point x="282" y="629" type="curve"/>
    </contour>
  </outline>
</glyph>
<glyph name="M" format="1">
  <advance width="936"/>
  <unicode hex="004D"/>
  <outline>
    <contour>
      <point x="794" y="0" type="line"/>
      <point x="794" y="629" type="line"/>
      <point x="794" y="658"/>
      <point x="830" y="665"/>
      <point x="876" y="665" type="curve"/>
      <point x="887" y="665" type="line"/>
      <point x="887" y="710" type="line"/>
      <point x="644" y="710" type="line"/>
      <point x="443" y="47" type="line"/>
      <point x="482" y="71" type="line"/>
      <point x="292" y="710" type="line"/>
      <point x="49" y="710" type="line"/>
      <point x="49" y="665" type="line"/>
      <point x="61" y="665" type="line"/>
      <point x="106" y="665"/>
      <point x="143" y="658"/>
      <point x="143" y="629" type="curve"/>
      <point x="143" y="0" type="line"/>
      <point x="200" y="0" type="line"/>
      <point x="200" y="699" type="line"/>
      <point x="192" y="680" type="line"/>
      <point x="409" y="-2" type="line"/>
      <point x="479" y="-2" type="line"/>
      <point x="696" y="683" type="line"/>
      <point x="687" y="699" type="line"/>
      <point x="687" y="0" type="line"/>
    </contour>
    <contour>
      <point x="887" y="0" type="line"/>
      <point x="887" y="45" type="line"/>
      <point x="876" y="45" type="line"/>
      <point x="830" y="45"/>
      <point x="794" y="52"/>
      <point x="794" y="81" type="curve"/>
      <point x="684" y="55" type="line"/>
      <point x="693" y="48"/>
      <point x="637" y="45"/>
      <point x="601" y="45" type="curve"/>
      <point x="593" y="45" type="line"/>
      <point x="593" y="0" type="line"/>
    </contour>
    <contour>
      <point x="49" y="0" type="line"/>
      <point x="289" y="0" type="line"/>
      <point x="289" y="45" type="line"/>
      <point x="278" y="45" type="line"/>
      <point x="243" y="44"/>
      <point x="200" y="49"/>
      <point x="200" y="61" type="curve"/>
      <point x="143" y="88" type="line"/>
      <point x="143" y="55"/>
      <point x="106" y="45"/>
      <point x="61" y="45" type="curve"/>
      <point x="49" y="45" type="line"/>
    </contour>
  </outline>
</glyph>
<glyph name="R" format="1">
  <advance width="717"/>
  <unicode hex="0052"/>
  <outline>
    <contour>
      <point x="145" y="0" type="line"/>
      <point x="250" y="0" type="line"/>
      <point x="250" y="710" type="line"/>
      <point x="145" y="710" type="line"/>
    </contour>
    <contour>
      <point x="372" y="320" type="line"/>
      <point x="537" y="0" type="line"/>
      <point x="650" y="0" type="line"/>
      <point x="643" y="26" type="line"/>
      <point x="472" y="337" type="line"/>
    </contour>
    <contour>
      <point x="697" y="0" type="line"/>
      <point x="697" y="45" type="line"/>
      <point x="688" y="45" type="line"/>
      <point x="649" y="45"/>
      <point x="631" y="49"/>
      <point x="613" y="81" type="curve"/>
      <point x="596" y="0" type="line"/>
    </contour>
    <contour>
      <point x="201" y="657" type="line"/>
      <point x="356" y="657" type="line" smooth="yes"/>
      <point x="464" y="657"/>
      <point x="518" y="599"/>
      <point x="518" y="506" type="curve" smooth="yes"/>
      <point x="518" y="412"/>
      <point x="468" y="355"/>
      <point x="352" y="355" type="curve" smooth="yes"/>
      <point x="201" y="355" type="line"/>
      <point x="201" y="304" type="line"/>
      <point x="356" y="304" type="line" smooth="yes"/>
      <point x="520" y="304"/>
      <point x="624" y="384"/>
      <point x="624" y="507" type="curve" smooth="yes"/>
      <point x="624" y="629"/>
      <point x="526" y="710"/>
      <point x="361" y="710" type="curve" smooth="yes"/>
      <point x="52" y="710" type="line"/>
      <point x="52" y="665" type="line"/>
      <point x="62" y="665" type="line"/>
      <point x="109" y="665"/>
      <point x="145" y="658"/>
      <point x="145" y="629" type="curve"/>
    </contour>
    <contour>
      <point x="52" y="0" type="line"/>
      <point x="337" y="0" type="line"/>
      <point x="337" y="45" type="line"/>
      <point x="331" y="45" type="line" smooth="yes"/>
      <point x="298" y="45"/>
      <point x="250" y="48"/>
      <point x="250" y="55" type="curve"/>
      <point x="145" y="81" type="line"/>
      <point x="145" y="52"/>
      <point x="109" y="45"/>
      <point x="62" y="45" type="curve" smooth="yes"/>
      <point x="52" y="45" type="line"/>
    </contour>
  </outline>
</glyph>
<glyph name="Y" format="1">
  <advance width="709"/>
  <unicode hex="0059"/>
  <outline>
    <contour>
      <point x="307" y="0" type="line"/>
      <point x="412" y="0" type="line"/>
      <point x="412" y="318" type="line"/>
      <point x="307" y="317" type="line"/>
    </contour>
    <contour>
      <point x="641" y="703" type="line"/>
      <point x="579" y="710" type="line"/>
      <point x="359" y="311" type="line"/>
      <point x="395" y="327" type="line"/>
      <point x="173" y="710" type="line"/>
      <point x="69" y="704" type="line"/>
      <point x="322" y="268" type="line"/>
      <point x="394" y="263" type="line"/>
    </contour>
    <contour>
      <point x="675" y="710" type="line"/>
      <point x="442" y="710" type="line"/>
      <point x="442" y="665" type="line"/>
      <point x="459" y="665" type="line" smooth="yes"/>
      <point x="502" y="665"/>
      <point x="542" y="651"/>
      <point x="542" y="643" type="curve"/>
      <point x="592" y="616" type="line"/>
      <point x="612" y="651"/>
      <point x="624" y="665"/>
      <point x="662" y="665" type="curve" smooth="yes"/>
      <point x="675" y="665" type="line"/>
    </contour>
    <contour>
      <point x="36" y="710" type="line"/>
      <point x="36" y="665" type="line"/>
      <point x="48" y="665" type="line" smooth="yes"/>
      <point x="83" y="665"/>
      <point x="95" y="660"/>
      <point x="112" y="632" type="curve"/>
      <point x="207" y="653" type="line"/>
      <point x="207" y="661"/>
      <point x="254" y="665"/>
      <point x="293" y="665" type="curve" smooth="yes"/>
      <point x="307" y="665" type="line"/>
      <point x="307" y="710" type="line"/>
    </contour>
    <contour>
      <point x="178" y="0" type="line"/>
      <point x="540" y="0" type="line"/>
      <point x="540" y="45" type="line"/>
      <point x="495" y="45" type="line" smooth="yes"/>
      <point x="449" y="45"/>
      <point x="412" y="52"/>
      <point x="412" y="81" type="curve"/>
      <point x="307" y="81" type="line"/>
      <point x="307" y="52"/>
      <point x="270" y="45"/>
      <point x="224" y="45" type="curve" smooth="yes"/>
      <point x="178" y="45" type="line"/>
    </contour>
  </outline>
</glyph>
<glyph name="Z" format="1">
  <advance width="659"/>
  <unicode hex="005A"/>
  <outline>
    <contour>
      <point x="119" y="53" type="line"/>
      <point x="140" y="25" type="line"/>
      <point x="589" y="643" type="line"/>
      <point x="589" y="710" type="line"/>
      <point x="75" y="710" type="line"/>
      <point x="75" y="519" type="line"/>
      <point x="126" y="519" type="line"/>
      <point x="139" y="611" type="line" smooth="yes"/>
      <point x="145" y="649"/>
      <point x="181" y="657"/>
      <point x="268" y="657" type="curve" smooth="yes"/>
      <point x="521" y="657" type="line"/>
      <point x="495" y="673" type="line"/>
      <point x="57" y="69" type="line"/>
      <point x="57" y="0" type="line"/>
      <point x="604" y="0" type="line"/>
      <point x="604" y="220" type="line"/>
      <point x="552" y="220" type="line"/>
      <point x="536" y="103" type="line" smooth="yes"/>
      <point x="531" y="64"/>
      <point x="494" y="53"/>
      <point x="396" y="53" type="curve" smooth="yes"/>
    </contour>
  </outline>
</glyph>
<glyph name="g" format="1">
  <advance width="643"/>
  <unicode hex="0067"/>
  <outline>
    <contour>
      <point x="296" y="-256" type="curve" smooth="yes"/>
      <point x="336" y="-256" type="line" smooth="yes"/>
      <point x="485" y="-256"/>
      <point x="613" y="-194"/>
      <point x="613" y="-72" type="curve" smooth="yes"/>
      <point x="613" y="17"/>
      <point x="549" y="61"/>
      <point x="429" y="61" type="curve" smooth="yes"/>
      <point x="236" y="61" type="line" smooth="yes"/>
      <point x="184" y="61"/>
      <point x="155" y="73"/>
      <point x="155" y="108" type="curve" smooth="yes"/>
      <point x="155" y="143"/>
      <point x="184" y="173"/>
      <point x="232" y="196" type="curve"/>
      <point x="249" y="223"/>
      <point x="203" y="244"/>
      <point x="187" y="216" type="curve"/>
      <point x="112" y="180"/>
      <point x="76" y="132"/>
      <point x="76" y="80" type="curve" smooth="yes"/>
      <point x="76" y="42"/>
      <point x="95" y="4"/>
      <point x="143" y="-18" type="curve"/>
      <point x="138" y="-23"/>
      <point x="132" y="-22"/>
      <point x="136" y="-32" type="curve"/>
      <point x="423" y="-32" type="line" smooth="yes"/>
      <point x="503" y="-32"/>
      <point x="527" y="-51"/>
      <point x="527" y="-94" type="curve" smooth="yes"/>
      <point x="527" y="-157"/>
      <point x="448" y="-203"/>
      <point x="334" y="-203" type="curve" smooth="yes"/>
      <point x="298" y="-203" type="line" smooth="yes"/>
      <point x="177" y="-203"/>
      <point x="120" y="-168"/>
      <point x="120" y="-114" type="curve" smooth="yes"/>
      <point x="120" y="-76"/>
      <point x="138" y="-43"/>
      <point x="189" y="-17" type="curve"/>
      <point x="158" y="6" type="line"/>
      <point x="78" y="-29"/>
      <point x="41" y="-66"/>
      <point x="41" y="-118" type="curve"/>
      <point x="41" y="-214"/>
      <point x="155" y="-256"/>
    </contour>
    <contour>
      <point x="194" y="357" type="curve" smooth="yes"/>
      <point x="194" y="445"/>
      <point x="240" y="497"/>
      <point x="310" y="497" type="curve" smooth="yes"/>
      <point x="381" y="497"/>
      <point x="428" y="445"/>
      <point x="428" y="357" type="curve" smooth="yes"/>
      <point x="428" y="270"/>
      <point x="381" y="221"/>
      <point x="310" y="221" type="curve" smooth="yes"/>
      <point x="240" y="221"/>
      <point x="194" y="270"/>
    </contour>
    <contour>
      <point x="310" y="168" type="curve" smooth="yes"/>
      <point x="435" y="168"/>
      <point x="527" y="242"/>
      <point x="527" y="358" type="curve" smooth="yes"/>
      <point x="527" y="472"/>
      <point x="435" y="550"/>
      <point x="310" y="550" type="curve" smooth="yes"/>
      <point x="186" y="550"/>
      <point x="94" y="472"/>
      <point x="94" y="358" type="curve" smooth="yes"/>
      <point x="94" y="242"/>
      <point x="186" y="168"/>
    </contour>
    <contour>
      <point x="618" y="463" type="curve"/>
      <point x="618" y="552" type="line"/>
      <point x="565" y="558"/>
      <point x="497" y="530"/>
      <point x="452" y="465" type="curve"/>
      <point x="452" y="464"/>
      <point x="478" y="440"/>
      <point x="479" y="441" type="curve"/>
      <point x="505" y="465"/>
      <point x="554" y="468"/>
    </contour>
  </outline>
</glyph>
<glyph name="i" format="1">
  <advance width="419"/>
  <unicode hex="0069"/>
  <outline>
    <contour>
      <point x="214" y="635" type="curve" smooth="yes"/>
      <point x="253" y="635"/>
      <point x="281" y="659"/>
      <point x="281" y="699" type="curve" smooth="yes"/>
      <point x="281" y="737"/>
      <point x="253" y="761"/>
      <point x="214" y="761" type="curve" smooth="yes"/>
      <point x="176" y="761"/>
      <point x="148" y="737"/>
      <point x="148" y="699" type="curve" smooth="yes"/>
      <point x="148" y="659"/>
      <point x="176" y="635"/>
    </contour>
    <contour>
      <point x="45" y="540" type="line"/>
      <point x="45" y="495" type="line"/>
      <point x="81" y="493" type="line" smooth="yes"/>
      <point x="143" y="490"/>
      <point x="168" y="477"/>
      <point x="168" y="448" type="curve" smooth="yes"/>
      <point x="168" y="0" type="line"/>
      <point x="267" y="0" type="line"/>
      <point x="267" y="540" type="line"/>
    </contour>
    <contour>
      <point x="390" y="0" type="line"/>
      <point x="390" y="41" type="line"/>
      <point x="372" y="41" type="line"/>
      <point x="306" y="41"/>
      <point x="267" y="48"/>
      <point x="267" y="77" type="curve"/>
      <point x="168" y="77" type="line"/>
      <point x="168" y="48"/>
      <point x="129" y="41"/>
      <point x="62" y="41" type="curve"/>
      <point x="44" y="41" type="line"/>
      <point x="44" y="0" type="line"/>
    </contour>
  </outline>
</glyph>
<glyph name="s" format="1">
  <advance width="504"/>
  <unicode hex="0073"/>
  <outline>
    <contour>
      <point x="378" y="137" type="curve"/>
      <point x="378" y="75"/>
      <point x="337" y="41"/>
      <point x="259" y="41" type="curve" smooth="yes"/>
      <point x="191" y="41"/>
      <point x="137" y="57"/>
      <point x="108" y="112" type="curve"/>
      <point x="91" y="72"/>
      <point x="96" y="57"/>
      <point x="131" y="42" type="curve"/>
      <point x="131" y="163" type="line"/>
      <point x="34" y="163" type="line"/>
      <point x="34" y="74" type="line"/>
      <point x="78" y="19"/>
      <point x="156" y="-11"/>
      <point x="262" y="-11" type="curve" smooth="yes"/>
      <point x="396" y="-11"/>
      <point x="470" y="59"/>
      <point x="470" y="153" type="curve" smooth="yes"/>
      <point x="470" y="358"/>
      <point x="147" y="270"/>
      <point x="147" y="410" type="curve" smooth="yes"/>
      <point x="147" y="459"/>
      <point x="181" y="499"/>
      <point x="255" y="499" type="curve" smooth="yes"/>
      <point x="306" y="499"/>
      <point x="350" y="479"/>
      <point x="374" y="433" type="curve"/>
      <point x="382" y="469"/>
      <point x="372" y="493"/>
      <point x="344" y="490" type="curve"/>
      <point x="344" y="397" type="line"/>
      <point x="439" y="397" type="line"/>
      <point x="439" y="397"/>
      <point x="439" y="473"/>
      <point x="439" y="474" type="curve"/>
      <point x="410" y="519"/>
      <point x="346" y="550"/>
      <point x="253" y="550" type="curve" smooth="yes"/>
      <point x="130" y="550"/>
      <point x="56" y="485"/>
      <point x="56" y="391" type="curve" smooth="yes"/>
      <point x="56" y="181"/>
      <point x="378" y="268"/>
    </contour>
  </outline>
</glyph>
<glyph name="v" format="1">
  <advance width="628"/>
  <unicode hex="0076"/>
  <outline>
    <contour>
      <point x="13" y="540" type="line"/>
      <point x="13" y="499" type="line"/>
      <point x="15" y="499" type="line"/>
      <point x="56" y="499"/>
      <point x="77" y="491"/>
      <point x="88" y="463" type="curve"/>
      <point x="179" y="489" type="line"/>
      <point x="179" y="496"/>
      <point x="226" y="499"/>
      <point x="250" y="499" type="curve"/>
      <point x="258" y="499" type="line"/>
      <point x="258" y="540" type="line"/>
    </contour>
    <contour>
      <point x="332" y="0" type="line"/>
      <point x="347" y="37" type="line"/>
      <point x="160" y="540" type="line"/>
      <point x="59" y="540" type="line"/>
      <point x="265" y="0" type="line"/>
    </contour>
    <contour>
      <point x="364" y="0" type="line"/>
      <point x="569" y="540" type="line"/>
      <point x="499" y="540" type="line"/>
      <point x="309" y="32" type="line"/>
      <point x="317" y="0" type="line"/>
    </contour>
    <contour>
      <point x="616" y="540" type="line"/>
      <point x="400" y="540" type="line"/>
      <point x="400" y="499" type="line"/>
      <point x="408" y="499" type="line"/>
      <point x="445" y="499"/>
      <point x="476" y="493"/>
      <point x="476" y="480" type="curve"/>
      <point x="537" y="456" type="line"/>
      <point x="547" y="483"/>
      <point x="569" y="499"/>
      <point x="614" y="499" type="curve"/>
      <point x="616" y="499" type="line"/>
    </contour>
  </outline>
</glyph>
<glyph name="w" format="1">
  <advance width="908"/>
  <unicode hex="0077"/>
  <outline>
    <contour>
      <point x="294" y="0" type="line"/>
      <point x="309" y="40" type="line"/>
      <point x="166" y="540" type="line"/>
      <point x="66" y="540" type="line"/>
      <point x="229" y="0" type="line"/>
    </contour>
    <contour>
      <point x="259" y="540" type="line"/>
      <point x="14" y="540" type="line"/>
      <point x="14" y="499" type="line"/>
      <point x="16" y="499" type="line"/>
      <point x="58" y="499"/>
      <point x="80" y="492"/>
      <point x="89" y="463" type="curve"/>
      <point x="181" y="489" type="line"/>
      <point x="181" y="496"/>
      <point x="229" y="499"/>
      <point x="252" y="499" type="curve"/>
      <point x="259" y="499" type="line"/>
    </contour>
    <contour>
      <point x="683" y="0" type="line"/>
      <point x="843" y="540" type="line"/>
      <point x="777" y="540" type="line"/>
      <point x="632" y="32" type="line"/>
      <point x="642" y="0" type="line"/>
    </contour>
    <contour>
      <point x="684" y="540" type="line"/>
      <point x="684" y="499" type="line"/>
      <point x="691" y="499" type="line"/>
      <point x="726" y="499"/>
      <point x="760" y="493"/>
      <point x="760" y="480" type="curve"/>
      <point x="817" y="453" type="line"/>
      <point x="827" y="484"/>
      <point x="848" y="499"/>
      <point x="892" y="499" type="curve"/>
      <point x="894" y="499" type="line"/>
      <point x="894" y="540" type="line"/>
    </contour>
    <contour>
      <point x="426" y="540" type="line"/>
      <point x="273" y="32" type="line"/>
      <point x="280" y="0" type="line"/>
      <point x="321" y="0" type="line"/>
      <point x="473" y="497" type="line"/>
      <point x="439" y="495" type="line"/>
      <point x="592" y="0" type="line"/>
      <point x="656" y="0" type="line"/>
      <point x="670" y="40" type="line"/>
      <point x="518" y="540" type="line"/>
    </contour>
  </outline>
</glyph>
<glyph name="z" format="1">
  <advance width="529"/>
  <unicode hex="007A"/>
  <outline>
    <contour>
      <point x="106" y="52" type="line"/>
      <point x="132" y="36" type="line"/>
      <point x="477" y="483" type="line"/>
      <point x="477" y="540" type="line"/>
      <point x="52" y="540" type="line"/>
      <point x="52" y="374" type="line"/>
      <point x="104" y="374" type="line"/>
      <point x="116" y="444" type="line" smooth="yes"/>
      <point x="123" y="482"/>
      <point x="153" y="489"/>
      <point x="224" y="489" type="curve" smooth="yes"/>
      <point x="405" y="489" type="line"/>
      <point x="383" y="503" type="line"/>
      <point x="38" y="60" type="line"/>
      <point x="38" y="0" type="line"/>
      <point x="488" y="0" type="line"/>
      <point x="488" y="177" type="line"/>
      <point x="434" y="177" type="line"/>
      <point x="422" y="97" type="line" smooth="yes"/>
      <point x="416" y="59"/>
      <point x="385" y="52"/>
      <point x="314" y="52" type="curve" smooth="yes"/>
    </contour>
  </outline>
</glyph>
<glyph name="C.alt" format="1">
  <advance width="723"/>
  <outline>
    <contour>
      <point x="56" y="355" type="curve" smooth="yes"/>
      <point x="56" y="138"/>
      <point x="200" y="-10"/>
      <point x="395" y="-10" type="curve" smooth="yes"/>
      <point x="546" y="-10"/>
      <point x="649" y="86"/>
      <point x="683" y="223" type="curve"/>
      <point x="618" y="244" type="line"/>
      <point x="591" y="137"/>
      <point x="517" y="54"/>
      <point x="402" y="54" type="curve" smooth="yes"/>
      <point x="262" y="54"/>
      <point x="169" y="173"/>
      <point x="169" y="355" type="curve" smooth="yes"/>
      <point x="169" y="539"/>
      <point x="262" y="660"/>
      <point x="407" y="660" type="curve" smooth="yes"/>
      <point x="499" y="660"/>
      <point x="565" y="611"/>
      <point x="593" y="552" type="curve"/>
      <point x="600" y="590"/>
      <point x="577" y="614"/>
      <point x="550" y="613" type="curve"/>
      <point x="550" y="503" type="line"/>
      <point x="658" y="503" type="line"/>
      <point x="658" y="607" type="line"/>
      <point x="627" y="659"/>
      <point x="536" y="720"/>
      <point x="406" y="720" type="curve" smooth="yes"/>
      <point x="202" y="720"/>
      <point x="56" y="569"/>
    </contour>
  </outline>
</glyph>
<glyph name="C.srf" format="1">
  <advance width="742"/>
  <outline>
    <contour>
      <point x="387" y="668" type="curve" smooth="yes"/>
      <point x="493" y="668"/>
      <point x="552" y="598"/>
      <point x="584" y="492" type="curve"/>
      <point x="660" y="492" type="line"/>
      <point x="660" y="710" type="line"/>
      <point x="602" y="710" type="line"/>
      <point x="588" y="550" type="line"/>
      <point x="592" y="545"/>
      <point x="605" y="560"/>
      <point x="615" y="553" type="curve"/>
      <point x="579" y="650"/>
      <point x="498" y="720"/>
      <point x="383" y="720" type="curve" smooth="yes"/>
      <point x="195" y="720"/>
      <point x="56" y="569"/>
      <point x="56" y="355" type="curve" smooth="yes"/>
      <point x="56" y="138"/>
      <point x="193" y="-10"/>
      <point x="392" y="-10" type="curve" smooth="yes"/>
      <point x="544" y="-10"/>
      <point x="640" y="89"/>
      <point x="674" y="231" type="curve"/>
      <point x="621" y="250" type="line"/>
      <point x="590" y="130"/>
      <point x="520" y="42"/>
      <point x="400" y="42" type="curve" smooth="yes"/>
      <point x="253" y="42"/>
      <point x="170" y="166"/>
      <point x="170" y="355" type="curve" smooth="yes"/>
      <point x="170" y="544"/>
      <point x="256" y="668"/>
    </contour>
  </outline>
</glyph>
<glyph name="F.alt" format="1">
  <advance width="614"/>
  <outline>
    <contour>
      <point x="143" y="0" type="line"/>
      <point x="248" y="0" type="line"/>
      <point x="248" y="710" type="line"/>
      <point x="143" y="710" type="line"/>
    </contour>
    <contour>
      <point x="49" y="710" type="line"/>
      <point x="49" y="664" type="line"/>
      <point x="60" y="664" type="line" smooth="yes"/>
      <point x="106" y="664"/>
      <point x="143" y="657"/>
      <point x="143" y="628" type="curve"/>
      <point x="198" y="657" type="line"/>
      <point x="383" y="657" type="line" smooth="yes"/>
      <point x="471" y="657"/>
      <point x="506" y="649"/>
      <point x="511" y="611" type="curve" smooth="yes"/>
      <point x="524" y="518" type="line"/>
      <point x="575" y="518" type="line"/>
      <point x="575" y="710" type="line"/>
    </contour>
    <contour>
      <point x="49" y="0" type="line"/>
      <point x="355" y="0" type="line"/>
      <point x="355" y="46" type="line"/>
      <point x="340" y="46" type="line" smooth="yes"/>
      <point x="298" y="46"/>
      <point x="248" y="49"/>
      <point x="248" y="77" type="curve"/>
      <point x="143" y="82" type="line"/>
      <point x="143" y="53"/>
      <point x="106" y="46"/>
      <point x="60" y="46" type="curve" smooth="yes"/>
      <point x="49" y="46" type="line"/>
    </contour>
    <contour>
      <point x="232" y="378" type="line"/>
      <point x="232" y="327" type="line"/>
      <point x="459" y="327" type="line"/>
      <point x="458" y="378" type="line"/>
    </contour>
    <contour>
      <point x="482" y="256" type="line"/>
      <point x="482" y="450" type="line"/>
      <point x="439" y="450" type="line"/>
      <point x="439" y="445" type="line"/>
      <point x="439" y="409"/>
      <point x="429" y="378"/>
      <point x="400" y="378" type="curve"/>
      <point x="400" y="327" type="line"/>
      <point x="429" y="327"/>
      <point x="439" y="296"/>
      <point x="439" y="261" type="curve"/>
      <point x="439" y="256" type="line"/>
    </contour>
  </outline>
</glyph>
<glyph name="K.alt" format="1">
  <advance width="785"/>
  <outline>
    <contour>
      <point x="590" y="0" type="line"/>
      <point x="716" y="6" type="line"/>
      <point x="698" y="27" type="line"/>
      <point x="399" y="396" type="line"/>
      <point x="384" y="357" type="line"/>
      <point x="667" y="683" type="line"/>
      <point x="692" y="704" type="line"/>
      <point x="612" y="710" type="line"/>
      <point x="315" y="366" type="line"/>
      <point x="312" y="347" type="line"/>
    </contour>
    <contour>
      <point x="143" y="0" type="line"/>
      <point x="248" y="0" type="line"/>
      <point x="248" y="710" type="line"/>
      <point x="143" y="710" type="line"/>
    </contour>
    <contour>
      <point x="49" y="710" type="line"/>
      <point x="49" y="665" type="line"/>
      <point x="60" y="665" type="line" smooth="yes"/>
      <point x="106" y="665"/>
      <point x="143" y="658"/>
      <point x="143" y="629" type="curve"/>
      <point x="248" y="655" type="line"/>
      <point x="248" y="662"/>
      <point x="295" y="665"/>
      <point x="330" y="665" type="curve" smooth="yes"/>
      <point x="339" y="665" type="line"/>
      <point x="339" y="710" type="line"/>
    </contour>
    <contour>
      <point x="724" y="710" type="line"/>
      <point x="464" y="710" type="line"/>
      <point x="464" y="665" type="line"/>
      <point x="475" y="665" type="line" smooth="yes"/>
      <point x="513" y="665"/>
      <point x="560" y="662"/>
      <point x="560" y="655" type="curve"/>
      <point x="616" y="630" type="line"/>
      <point x="643" y="658"/>
      <point x="659" y="665"/>
      <point x="709" y="665" type="curve" smooth="yes"/>
      <point x="724" y="665" type="line"/>
    </contour>
    <contour>
      <point x="49" y="0" type="line"/>
      <point x="339" y="0" type="line"/>
      <point x="339" y="45" type="line"/>
      <point x="330" y="45" type="line" smooth="yes"/>
      <point x="295" y="45"/>
      <point x="248" y="48"/>
      <point x="248" y="55" type="curve"/>
      <point x="143" y="81" type="line"/>
      <point x="143" y="52"/>
      <point x="107" y="45"/>
      <point x="60" y="45" type="curve" smooth="yes"/>
      <point x="49" y="45" type="line"/>
    </contour>
    <contour>
      <point x="758" y="0" type="line"/>
      <point x="758" y="45" type="line"/>
      <point x="741" y="45" type="line" smooth="yes"/>
      <point x="687" y="45"/>
      <point x="674" y="51"/>
      <point x="649" y="81" type="curve"/>
      <point x="541" y="55" type="line"/>
      <point x="541" y="48"/>
      <point x="494" y="45"/>
      <point x="457" y="45" type="curve" smooth="yes"/>
      <point x="446" y="45" type="line"/>
      <point x="446" y="0" type="line"/>
    </contour>
    <contour>
      <point x="220" y="388" type="line"/>
      <point x="220" y="335" type="line"/>
      <point x="360" y="335" type="line"/>
      <point x="360" y="388" type="line"/>
    </contour>
  </outline>
</glyph>
<glyph name="Q.alt2" format="1">
  <advance width="760"/>
  <outline>
    <contour>
      <point x="380" y="-10" type="curve" smooth="yes"/>
      <point x="569" y="-10"/>
      <point x="704" y="135"/>
      <point x="704" y="355" type="curve" smooth="yes"/>
      <point x="704" y="574"/>
      <point x="569" y="720"/>
      <point x="380" y="720" type="curve" smooth="yes"/>
      <point x="190" y="720"/>
      <point x="56" y="575"/>
      <point x="56" y="355" type="curve" smooth="yes"/>
      <point x="56" y="136"/>
      <point x="190" y="-10"/>
    </contour>
    <contour>
      <point x="380" y="43" type="curve" smooth="yes"/>
      <point x="251" y="43"/>
      <point x="170" y="159"/>
      <point x="170" y="355" type="curve" smooth="yes"/>
      <point x="170" y="551"/>
      <point x="251" y="667"/>
      <point x="380" y="667" type="curve" smooth="yes"/>
      <point x="510" y="667"/>
      <point x="589" y="551"/>
      <point x="589" y="355" type="curve" smooth="yes"/>
      <point x="589" y="159"/>
      <point x="510" y="43"/>
    </contour>
    <contour>
      <point x="179" y="-174" type="curve"/>
      <point x="226" y="-192" type="line"/>
      <point x="250" y="-136"/>
      <point x="287" y="-103"/>
      <point x="351" y="-103" type="curve" smooth="yes"/>
      <point x="426" y="-103"/>
      <point x="543" y="-145"/>
      <point x="678" y="-215" type="curve"/>
      <point x="712" y="-120" type="line"/>
      <point x="588" y="-71"/>
      <point x="473" y="-44"/>
      <point x="387" y="-44" type="curve" smooth="yes"/>
      <point x="276" y="-44"/>
      <point x="218" y="-88"/>
    </contour>
  </outline>
</glyph>
<glyph name="Q.alt6" format="1">
  <advance width="760"/>
  <outline>
    <contour>
      <point x="380" y="-10" type="curve" smooth="yes"/>
      <point x="569" y="-10"/>
      <point x="704" y="135"/>
      <point x="704" y="355" type="curve" smooth="yes"/>
      <point x="704" y="574"/>
      <point x="569" y="720"/>
      <point x="380" y="720" type="curve" smooth="yes"/>
      <point x="190" y="720"/>
      <point x="56" y="575"/>
      <point x="56" y="355" type="curve" smooth="yes"/>
      <point x="56" y="136"/>
      <point x="190" y="-10"/>
    </contour>
    <contour>
      <point x="380" y="42" type="curve" smooth="yes"/>
      <point x="250" y="42"/>
      <point x="170" y="146"/>
      <point x="170" y="354" type="curve" smooth="yes"/>
      <point x="170" y="551"/>
      <point x="251" y="667"/>
      <point x="380" y="667" type="curve" smooth="yes"/>
      <point x="510" y="667"/>
      <point x="589" y="551"/>
      <point x="589" y="354" type="curve" smooth="yes"/>
      <point x="589" y="146"/>
      <point x="520" y="42"/>
    </contour>
    <contour>
      <point x="781" y="-55" type="curve"/>
      <point x="781" y="31" type="line"/>
      <point x="647" y="20"/>
      <point x="600" y="47"/>
      <point x="562" y="96" type="curve" smooth="yes"/>
      <point x="507" y="166"/>
      <point x="478" y="239"/>
      <point x="382" y="239" type="curve" smooth="yes"/>
      <point x="305" y="239"/>
      <point x="257" y="191"/>
      <point x="257" y="133" type="curve" smooth="yes"/>
      <point x="257" y="96"/>
      <point x="269" y="68"/>
      <point x="294" y="51" type="curve"/>
      <point x="335" y="37" type="line"/>
      <point x="314" y="54"/>
      <point x="304" y="83"/>
      <point x="304" y="116" type="curve" smooth="yes"/>
      <point x="304" y="161"/>
      <point x="332" y="188"/>
      <point x="376" y="188" type="curve" smooth="yes"/>
      <point x="447" y="188"/>
      <point x="463" y="108"/>
      <point x="508" y="37" type="curve" smooth="yes"/>
      <point x="544" y="-19"/>
      <point x="615" y="-69"/>
    </contour>
  </outline>
</glyph>
<glyph name="S.srf" format="1">
  <advance width="633"/>
  <outline>
    <contour>
      <point x="332" y="41" type="curve" smooth="yes"/>
      <point x="231" y="41"/>
      <point x="147" y="103"/>
      <point x="122" y="222" type="curve"/>
      <point x="47" y="222" type="line"/>
      <point x="47" y="0" type="line"/>
      <point x="105" y="0" type="line"/>
      <point x="116" y="156" type="line"/>
      <point x="113" y="162"/>
      <point x="96" y="157"/>
      <point x="88" y="164" type="curve"/>
      <point x="125" y="41"/>
      <point x="230" y="-10"/>
      <point x="339" y="-10" type="curve" smooth="yes"/>
      <point x="469" y="-10"/>
      <point x="577" y="65"/>
      <point x="577" y="197" type="curve" smooth="yes"/>
      <point x="577" y="339"/>
      <point x="461" y="379"/>
      <point x="351" y="409" type="curve" smooth="yes"/>
      <point x="252" y="437"/>
      <point x="161" y="457"/>
      <point x="161" y="546" type="curve" smooth="yes"/>
      <point x="161" y="619"/>
      <point x="209" y="668"/>
      <point x="299" y="668" type="curve" smooth="yes"/>
      <point x="389" y="668"/>
      <point x="457" y="612"/>
      <point x="473" y="523" type="curve"/>
      <point x="543" y="523" type="line"/>
      <point x="543" y="710" type="line"/>
      <point x="489" y="710" type="line"/>
      <point x="478" y="577" type="line"/>
      <point x="487" y="571"/>
      <point x="502" y="569"/>
      <point x="506" y="573" type="curve"/>
      <point x="467" y="684"/>
      <point x="384" y="720"/>
      <point x="288" y="720" type="curve" smooth="yes"/>
      <point x="163" y="720"/>
      <point x="68" y="644"/>
      <point x="68" y="531" type="curve"/>
      <point x="68" y="391"/>
      <point x="180" y="354"/>
      <point x="287" y="324" type="curve" smooth="yes"/>
      <point x="385" y="297"/>
      <point x="477" y="272"/>
      <point x="477" y="172" type="curve" smooth="yes"/>
      <point x="477" y="81"/>
      <point x="420" y="41"/>
    </contour>
  </outline>
</glyph>
<glyph name="W.alt" format="1">
  <advance width="1060"/>
  <outline>
    <contour>
      <point x="268" y="0" type="line"/>
      <point x="348" y="0" type="line"/>
      <point x="352" y="40" type="line"/>
      <point x="176" y="710" type="line"/>
      <point x="74" y="710" type="line"/>
    </contour>
    <contour>
      <point x="17" y="710" type="line"/>
      <point x="17" y="665" type="line"/>
      <point x="24" y="665" type="line" smooth="yes"/>
      <point x="61" y="665"/>
      <point x="87" y="665"/>
      <point x="95" y="632" type="curve"/>
      <point x="190" y="654" type="line"/>
      <point x="190" y="661"/>
      <point x="238" y="665"/>
      <point x="278" y="665" type="curve" smooth="yes"/>
      <point x="293" y="665" type="line"/>
      <point x="293" y="710" type="line"/>
    </contour>
    <contour>
      <point x="983" y="708" type="line"/>
      <point x="925" y="710" type="line"/>
      <point x="731" y="0" type="line"/>
      <point x="791" y="-2" type="line"/>
    </contour>
    <contour>
      <point x="1043" y="710" type="line"/>
      <point x="805" y="710" type="line"/>
      <point x="805" y="665" type="line"/>
      <point x="823" y="665" type="line" smooth="yes"/>
      <point x="867" y="665"/>
      <point x="907" y="651"/>
      <point x="907" y="644" type="curve"/>
      <point x="958" y="616" type="line"/>
      <point x="968" y="651"/>
      <point x="996" y="665"/>
      <point x="1034" y="665" type="curve" smooth="yes"/>
      <point x="1043" y="665" type="line"/>
    </contour>
    <contour>
      <point x="498" y="710" type="line"/>
      <point x="316" y="0" type="line"/>
      <point x="376" y="0" type="line"/>
      <point x="539" y="663" type="line"/>
      <point x="519" y="664" type="line"/>
      <point x="684" y="0" type="line"/>
      <point x="764" y="0" type="line"/>
      <point x="767" y="40" type="line"/>
      <point x="602" y="710" type="line"/>
    </contour>
    <contour>
      <point x="698" y="710" type="line"/>
      <point x="403" y="710" type="line"/>
      <point x="403" y="665" type="line"/>
      <point x="418" y="665" type="line" smooth="yes"/>
      <point x="448" y="665"/>
      <point x="485" y="661"/>
      <point x="485" y="654" type="curve"/>
      <point x="615" y="654" type="line"/>
      <point x="615" y="661"/>
      <point x="652" y="665"/>
      <point x="683" y="665" type="curve" smooth="yes"/>
      <point x="698" y="665" type="line"/>
    </contour>
  </outline>
</glyph>
<glyph name="j.alt" format="1">
  <advance width="375"/>
  <outline>
    <contour>
      <point x="214" y="635" type="curve" smooth="yes"/>
      <point x="252" y="635"/>
      <point x="280" y="659"/>
      <point x="280" y="699" type="curve" smooth="yes"/>
      <point x="280" y="737"/>
      <point x="252" y="761"/>
      <point x="214" y="761" type="curve" smooth="yes"/>
      <point x="175" y="761"/>
      <point x="147" y="737"/>
      <point x="147" y="699" type="curve" smooth="yes"/>
      <point x="147" y="659"/>
      <point x="175" y="635"/>
    </contour>
    <contour>
      <point x="167" y="-55" type="line" smooth="yes"/>
      <point x="167" y="-137"/>
      <point x="139" y="-193"/>
      <point x="75" y="-193" type="curve" smooth="yes"/>
      <point x="26" y="-193"/>
      <point x="-8" y="-175"/>
      <point x="-29" y="-130" type="curve"/>
      <point x="-39" y="-165"/>
      <point x="-17" y="-188"/>
      <point x="9" y="-187" type="curve"/>
      <point x="9" y="-91" type="line"/>
      <point x="-89" y="-91" type="line"/>
      <point x="-89" y="-172" type="line"/>
      <point x="-59" y="-213"/>
      <point x="-3" y="-240"/>
      <point x="76" y="-240" type="curve" smooth="yes"/>
      <point x="190" y="-240"/>
      <point x="266" y="-164"/>
      <point x="266" y="-49" type="curve" smooth="yes"/>
      <point x="266" y="540" type="line"/>
      <point x="47" y="540" type="line"/>
      <point x="47" y="495" type="line"/>
      <point x="82" y="493" type="line" smooth="yes"/>
      <point x="143" y="490"/>
      <point x="167" y="477"/>
      <point x="167" y="448" type="curve" smooth="yes"/>
    </contour>
  </outline>
</glyph>
<glyph name="seven.oldalt" format="1">
  <advance width="548"/>
  <outline>
    <contour>
      <point x="147" y="-182" type="line"/>
      <point x="441" y="466" type="line"/>
      <point x="456" y="448" type="line"/>
      <point x="113" y="448" type="line"/>
      <point x="113" y="448" type="line"/>
      <point x="113" y="319" type="line"/>
      <point x="50" y="319" type="line"/>
      <point x="50" y="528" type="line"/>
      <point x="508" y="528" type="line"/>
      <point x="508" y="454" type="line"/>
      <point x="260" y="-182" type="line"/>
    </contour>
  </outline>
</glyph>
<glyph name="zero.old" format="1">
  <advance width="645"/>
  <outline>
    <contour>
      <point x="323" y="537" type="curve"/>
      <point x="167" y="537"/>
      <point x="42" y="423"/>
      <point x="42" y="263" type="curve" smooth="yes"/>
      <point x="42" y="103"/>
      <point x="167" y="-12"/>
      <point x="323" y="-12" type="curve"/>
      <point x="478" y="-12"/>
      <point x="603" y="103"/>
      <point x="603" y="262" type="curve" smooth="yes"/>
      <point x="603" y="422"/>
      <point x="478" y="537"/>
    </contour>
    <contour>
      <point x="323" y="476" type="curve"/>
      <point x="424" y="476"/>
      <point x="497" y="391"/>
      <point x="497" y="262" type="curve" smooth="yes"/>
      <point x="497" y="133"/>
      <point x="424" y="49"/>
      <point x="323" y="49" type="curve"/>
      <point x="221" y="49"/>
      <point x="148" y="134"/>
      <point x="148" y="263" type="curve" smooth="yes"/>
      <point x="148" y="392"/>
      <point x="221" y="476"/>
    </contour>
  </outline>
</glyph>
